<?xml version="1.0" encoding="UTF-8"?>
<svg id="Layer_1" xmlns="http://www.w3.org/2000/svg" version="1.1" viewBox="0 0 400 101">
  <!-- Generator: Adobe Illustrator 29.1.0, SVG Export Plug-In . SVG Version: 2.1.0 Build 142)  -->
  <defs>
    <style>
      .st0 {
        fill: #191919;
      }
    </style>
  </defs>
  <path class="st0" d="M331.5,28.6c5.9,0,11.3,3.2,14.2,8.2l1,1.7,10.6-6.1-1-1.7c-5.1-8.9-14.6-14.4-24.8-14.4-15.8,0-28.6,12.8-28.6,28.6s12.8,28.6,28.6,28.6,19.7-5.5,24.8-14.3l1-1.7-10.6-6.1-1,1.7c-2.9,5.1-8.4,8.2-14.2,8.2-9,0-16.4-7.4-16.4-16.4s7.4-16.4,16.4-16.4Z"/>
  <path class="st0" d="M139.5,16.4c-16.1,0-29.2,13.1-29.2,29.2v25h12.5v-25c0-9.2,7.5-16.8,16.8-16.8s16.8,7.5,16.8,16.8v25h12.5v-25c0-16.1-13.1-29.2-29.2-29.2Z"/>
  <path class="st0" d="M204.6,16.4c-16.1,0-29.2,13.1-29.2,29.2v25h12.5v-25c0-9.2,7.5-16.8,16.8-16.8s16.8,7.5,16.8,16.8v25h12.5v-25c0-16.1-13.1-29.2-29.2-29.2Z"/>
  <path class="st0" d="M74.6,16.4c-10.5,0-20.1,5.5-25,14.3-1.7,3-2.3,6.4-3.4,11.4-.2,1-.4,2.1-.7,3.2-1,5-4.7,16.6-16.4,16.6s-16.4-7.2-16.4-16.4,7.2-16.4,16.4-16.4,7,1.1,9.9,3.2l2,1.5,8.2-9.5-2.2-1.7c-5.1-4-11.3-6.1-17.9-6.1-16,0-29.1,13.1-29.1,29.1s13,29.1,29.1,29.1,18.8-5.2,24.2-14.3c2.6-4.5,3.6-8.7,4.8-14.7,2.1-10.4,8.2-16.6,16.4-16.6s16.4,7.2,16.4,16.4-7.2,16.4-16.4,16.4-7-1.1-9.9-3.2l-2-1.5-8.2,9.5,2.2,1.7c5.1,4,11.3,6.1,17.9,6.1,16,0,29.1-13,29.1-29.1s-13-29.1-29.1-29.1Z"/>
  <path class="st0" d="M373.4,59.8V26.6h-9.5v-11h9.5V-.1h12.5v15.7h11.7v11h-11.7v30.2c0,3.9,1.9,6.8,5.5,6.8s4.6-1,5.6-2l3,9.4c-2.3,2.2-6,3.7-11.8,3.7-9.7,0-14.8-5.3-14.8-14.8Z"/>
  <path class="st0" d="M268.8,16.4c16.7,0,27.5,12.8,27.5,30.3v2.9h-43c.9,8.4,7.3,15.3,17.8,15.3s11.9-2.2,15.8-6.1l5.5,8c-5.5,5.3-13.7,8.1-22.6,8.1-16.7,0-29.2-11.7-29.2-29.3,0-16.2,11.8-29.2,28.2-29.2ZM254.8,41.1h27.9c-.2-5.8-4.2-13.1-13.9-13.1-9.2,0-13.4,7.1-13.9,13.1Z"/>
  <g>
    <path class="st0" d="M5.6,100.8v-16.9h6.3c3.2,0,5.1,2.3,5.1,4.9s-1.9,4.9-5.1,4.9h-4.9v7s-1.4,0-1.4,0ZM11.8,85.2h-4.7v7.2h4.7c2.2,0,3.7-1.5,3.7-3.6s-1.5-3.6-3.7-3.6Z"/>
    <path class="st0" d="M23.6,100.8v-16.9h1.4v16.9h-1.4Z"/>
    <path class="st0" d="M32.8,100.8v-16.9h1.4v15.6h8.2v1.3h-9.6Z"/>
    <path class="st0" d="M61.4,100.8l-1.7-4.2h-9l-1.7,4.2h-1.6l6.9-16.9h1.8l6.9,16.9h-1.6ZM55.2,85.3l-4,10h8.1l-4.1-10Z"/>
    <path class="st0" d="M71.6,100.8v-15.6h-5.5v-1.3h12.5v1.3h-5.5v15.6h-1.5Z"/>
    <path class="st0" d="M85.1,100.8v-16.9h10.7v1.3h-9.3v6.2h9.1v1.3h-9.1v6.7h9.3v1.3h-10.7Z"/>
    <path class="st0" d="M102.9,97.3c1.1,1.3,2.9,2.5,5.3,2.5,3.5,0,4.5-1.9,4.5-3.4,0-2.4-2.2-3-4.6-3.7-2.7-.7-5.5-1.5-5.5-4.6s2.5-4.5,5.6-4.5,4.4.9,5.7,2.4l-1,1.1c-1.2-1.5-2.9-2.1-4.8-2.1s-3.9,1.3-3.9,3.1,2.1,2.6,4.4,3.2c2.7.8,5.7,1.7,5.7,5.1s-1.4,4.8-6,4.8-4.9-1.1-6.2-2.7l.9-1.1Z"/>
    <path class="st0" d="M131.3,97.3c1.1,1.3,2.9,2.5,5.3,2.5,3.5,0,4.5-1.9,4.5-3.4,0-2.4-2.2-3-4.6-3.7-2.7-.7-5.5-1.5-5.5-4.6s2.5-4.5,5.6-4.5,4.4.9,5.7,2.4l-1,1.1c-1.2-1.5-2.9-2.1-4.8-2.1s-3.9,1.3-3.9,3.1,2.1,2.6,4.4,3.2c2.7.8,5.7,1.7,5.7,5.1s-1.4,4.8-6,4.8-4.9-1.1-6.2-2.7l.9-1.1Z"/>
    <path class="st0" d="M153.8,100.8v-15.6h-5.5v-1.3h12.5v1.3h-5.5v15.6h-1.5Z"/>
    <path class="st0" d="M167.3,83.9h1.5v10.4c0,3.4,1.8,5.5,5.1,5.5s5.1-2.1,5.1-5.5v-10.4h1.5v10.4c0,4.2-2.2,6.8-6.6,6.8s-6.6-2.6-6.6-6.8v-10.4h0Z"/>
    <path class="st0" d="M188.2,100.8v-16.9h5.4c5.2,0,8.5,3.8,8.5,8.5s-3.3,8.4-8.5,8.4h-5.4ZM189.7,99.5h3.9c4.5,0,7-3.2,7-7.1s-2.5-7.1-7-7.1h-3.9v14.3Z"/>
    <path class="st0" d="M209.3,100.8v-16.9h1.4v16.9h-1.4Z"/>
    <path class="st0" d="M226.1,83.6c4.9,0,8.2,3.8,8.2,8.7s-3.3,8.7-8.2,8.7-8.2-3.8-8.2-8.7c0-4.9,3.2-8.7,8.2-8.7ZM226.1,85c-4.1,0-6.7,3.1-6.7,7.4s2.6,7.4,6.7,7.4,6.7-3.2,6.7-7.4c0-4.3-2.6-7.4-6.7-7.4Z"/>
  </g>
</svg>