<?xml version="1.0" encoding="UTF-8"?>
<svg id="Layer_2" data-name="Layer 2" xmlns="http://www.w3.org/2000/svg" viewBox="0 0 62.09 52.57">
  <defs>
    <style>
      .cls-1 {
        fill: #fff;
      }

      .cls-2 {
        opacity: .3;
      }
    </style>
  </defs>
  <g id="Layer_1-2" data-name="Layer 1">
    <g>
      <g class="cls-2">
        <path class="cls-1" d="M4.29,33.95c1.1,2.94,2.68,5.65,4.72,8.06,4.09,4.85,9.77,8.13,15.98,9.25,0,0,.01,0,.02,0,.04,0,.08-.03.09-.07,0-.05-.02-.1-.07-.11-6.17-1.11-11.8-4.37-15.87-9.18-2.02-2.39-3.6-5.08-4.68-8-.21-.56-.38-1.12-.54-1.69h-.19c.17.59.35,1.18.57,1.75Z"/>
        <path class="cls-1" d="M12.9,3.31s.03-.04.03-.06c.31.04,1.41.09,2.74-.66,1.86-1.05,2.27-2.44,2.27-2.44-2.86-.65-4.48.91-5.07,3-.03,0-.06,0-.08.02C7.46,7.44,4,13.44,2.94,20.05h.18C4.18,13.5,7.61,7.55,12.9,3.31Z"/>
        <path class="cls-1" d="M19.18,45.8c-.6-.23-1.22-.34-1.86-.4.08,2.52,2.15,4.05,4.27,4.33.17-.7.08-1.45-.24-2.09-.43-.87-1.26-1.49-2.17-1.83Z"/>
        <path class="cls-1" d="M15.17,51.47c.53.36,1.09.66,1.7.86.92.3,1.96.34,2.84-.06.65-.3,1.2-.83,1.51-1.47-1.82-1.12-4.39-1.24-6.04.67Z"/>
        <path class="cls-1" d="M13.7,42.04c-.51-.38-1.08-.67-1.68-.9-.62,2.44.95,4.48,2.91,5.34.35-.62.48-1.37.35-2.08-.18-.95-.8-1.78-1.58-2.36Z"/>
        <path class="cls-1" d="M8.29,46.38c.41.49.87.94,1.39,1.3.8.55,1.79.87,2.75.73.71-.1,1.38-.47,1.85-1-1.44-1.57-3.88-2.4-5.99-1.02Z"/>
        <path class="cls-1" d="M8.11,35.59c-1.27,2.18-.32,4.57,1.33,5.93.51-.5.84-1.19.91-1.9.09-.96-.28-1.93-.87-2.7-.39-.51-.86-.94-1.37-1.32Z"/>
        <path class="cls-1" d="M3.07,39.59c.26.58.57,1.14.98,1.63.62.75,1.48,1.33,2.44,1.45.71.1,1.45-.07,2.06-.45-.95-1.91-3.07-3.38-5.48-2.63Z"/>
        <path class="cls-1" d="M5.51,35.23c.63-.34,1.13-.91,1.4-1.58.18-.46.24-.96.22-1.45h-2.57c-.01,1.08.35,2.16.96,3.03Z"/>
        <path class="cls-1" d="M.42,33.47c.39.89,1.06,1.68,1.94,2.07.66.29,1.42.33,2.1.13-.26-1.4-1.08-2.74-2.35-3.47H.04c.09.43.2.86.38,1.27Z"/>
        <path class="cls-1" d="M6.93,17.65c.12-.63.12-1.27.07-1.9-2.22.46-3.36,2.37-3.5,4.3h2.06c.74-.58,1.2-1.48,1.38-2.4Z"/>
        <path class="cls-1" d="M.66,14.69c-.26.58-.46,1.19-.56,1.82-.14.96,0,1.99.55,2.79.2.29.46.55.75.76h1.11c.56-1.91.14-4.17-1.86-5.36Z"/>
        <path class="cls-1" d="M5.53,13.58c.68.24,1.44.23,2.11-.02.91-.34,1.61-1.1,2.05-1.96.29-.57.47-1.18.59-1.81-2.51-.19-4.25,1.72-4.75,3.79Z"/>
        <path class="cls-1" d="M4.51,13.1c1.3-1.69,1.69-4.24-.04-6.08-.41.49-.77,1.02-1.04,1.6-.4.88-.54,1.91-.24,2.83.23.68.7,1.28,1.31,1.65Z"/>
        <path class="cls-1" d="M14.01,6.54c.43-.47.78-1.01,1.07-1.58-2.37-.87-4.56.48-5.61,2.34.58.41,1.32.62,2.03.56.97-.08,1.85-.61,2.51-1.32Z"/>
        <path class="cls-1" d="M10.25.7c-.53.36-1.02.76-1.44,1.25-.63.74-1.05,1.69-1.01,2.65.03.72.32,1.42.8,1.95,1.72-1.27,2.79-3.61,1.64-5.85Z"/>
        <path class="cls-1" d="M49.31,3.17s-.05-.02-.08-.02c-.59-2.09-2.21-3.65-5.07-3,0,0,.41,1.38,2.27,2.44,1.33.75,2.42.7,2.74.66,0,.02.01.04.03.06,5.28,4.24,8.72,10.19,9.78,16.74h.18c-1.07-6.61-4.52-12.61-9.85-16.88Z"/>
        <path class="cls-1" d="M57.63,33.89c-1.09,2.92-2.66,5.61-4.68,8-4.07,4.82-9.7,8.08-15.87,9.18-.05,0-.08.06-.07.11,0,.04.05.07.09.07,0,0,.01,0,.02,0,6.21-1.12,11.88-4.4,15.98-9.25,2.03-2.41,3.62-5.12,4.72-8.06.22-.58.39-1.16.57-1.75h-.19c-.17.57-.34,1.13-.54,1.69Z"/>
        <path class="cls-1" d="M44.77,45.41c-.64.06-1.27.17-1.86.4-.91.34-1.74.97-2.17,1.83-.32.64-.41,1.4-.24,2.09,2.12-.28,4.19-1.81,4.27-4.33Z"/>
        <path class="cls-1" d="M40.88,50.8c.31.65.85,1.18,1.51,1.47.88.4,1.92.36,2.84.06.6-.2,1.17-.51,1.7-.86-1.65-1.91-4.22-1.79-6.04-.67Z"/>
        <path class="cls-1" d="M50.07,41.14c-.6.23-1.17.51-1.68.9-.78.58-1.4,1.41-1.58,2.36-.13.71,0,1.46.35,2.08,1.96-.85,3.53-2.89,2.91-5.34Z"/>
        <path class="cls-1" d="M47.81,47.4c.48.54,1.15.9,1.85,1,.96.14,1.94-.18,2.75-.73.53-.36.98-.81,1.39-1.3-2.11-1.38-4.55-.55-5.99,1.02Z"/>
        <path class="cls-1" d="M53.99,35.59c-.51.38-.98.82-1.37,1.32-.59.77-.96,1.74-.87,2.7.07.71.4,1.4.91,1.9,1.65-1.36,2.6-3.75,1.33-5.93Z"/>
        <path class="cls-1" d="M53.54,42.23c.61.38,1.35.55,2.06.45.96-.13,1.82-.71,2.44-1.45.41-.49.72-1.05.98-1.63-2.41-.74-4.53.72-5.48,2.63Z"/>
        <path class="cls-1" d="M55.19,33.65c.26.67.77,1.24,1.4,1.58.6-.88.97-1.96.96-3.03h-2.57c-.03.5.03.99.22,1.45Z"/>
        <path class="cls-1" d="M57.63,35.67c.69.2,1.45.15,2.1-.13.89-.39,1.55-1.18,1.94-2.07.18-.41.29-.83.38-1.27h-2.08c-1.26.73-2.09,2.07-2.35,3.47Z"/>
        <path class="cls-1" d="M55.09,15.75c-.06.64-.05,1.28.07,1.9.18.93.63,1.82,1.38,2.4h2.06c-.14-1.93-1.28-3.84-3.5-4.3Z"/>
        <path class="cls-1" d="M61.44,19.29c.55-.8.69-1.83.55-2.79-.09-.63-.3-1.24-.56-1.82-2,1.19-2.42,3.46-1.86,5.36h1.11c.29-.21.54-.47.75-.76Z"/>
        <path class="cls-1" d="M54.45,13.56c.67.25,1.43.26,2.11.02-.5-2.08-2.24-3.98-4.75-3.79.12.63.3,1.24.59,1.81.44.86,1.14,1.62,2.05,1.96Z"/>
        <path class="cls-1" d="M58.9,11.45c.31-.92.16-1.95-.24-2.83-.26-.58-.63-1.11-1.04-1.6-1.72,1.84-1.33,4.38-.04,6.08.61-.38,1.08-.97,1.31-1.65Z"/>
        <path class="cls-1" d="M47.02,4.97c.29.57.63,1.11,1.07,1.58.66.71,1.55,1.25,2.51,1.32.72.06,1.45-.15,2.03-.56-1.05-1.86-3.25-3.21-5.61-2.34Z"/>
        <path class="cls-1" d="M53.48,6.56c.48-.53.77-1.23.8-1.95.04-.97-.38-1.92-1.01-2.65-.41-.49-.91-.89-1.44-1.25-1.15,2.24-.07,4.58,1.64,5.85Z"/>
      </g>
      <g>
        <path id="logo-a1" class="cls-1" d="M.26,25.71c.22-1.14,1.23-1.94,2.64-1.94,1.63,0,2.91.7,2.91,2.91v4.1h-1.41l-.18-.88c-.48.62-1.14,1.01-2.11,1.01-1.19,0-2.11-.75-2.11-2.11s1.23-2.25,2.95-2.25h1.14v-.31c0-.79-.57-1.01-1.23-1.01-.48,0-.97.18-1.19.79l-1.41-.31ZM2.51,29.45c.79,0,1.59-.53,1.59-1.41v-.13h-1.1c-.75-.04-1.19.26-1.19.88,0,.31.26.66.7.66Z"/>
        <path id="logo-a2" class="cls-1" d="M33.47,25.71c.22-1.14,1.23-1.94,2.64-1.94,1.63,0,2.91.7,2.91,2.91v4.1h-1.41l-.18-.88c-.48.62-1.14,1.01-2.11,1.01-1.19,0-2.11-.75-2.11-2.11s1.23-2.25,2.95-2.25h1.14v-.31c0-.79-.57-1.01-1.23-1.01-.48,0-.97.18-1.19.79l-1.41-.31ZM35.71,29.45c.79,0,1.59-.53,1.59-1.41v-.13h-1.14c-.75,0-1.19.26-1.19.88.04.31.31.66.75.66Z"/>
        <path id="logo-r" class="cls-1" d="M40.56,30.82v-6.96h1.72v1.14c.48-.84,1.28-1.23,2.03-1.23.31,0,.57.04.84.13l-.31,1.59c-.22-.13-.44-.22-.7-.22-1.01,0-1.85.84-1.85,3.04v2.47l-1.72.04h0Z"/>
        <path id="logo-d" class="cls-1" d="M48.79,23.77c.7,0,1.37.35,1.67.75v-3.43h1.72v9.73h-1.72v-.7c-.22.35-.84.84-1.67.84-2.07,0-3.13-1.45-3.13-3.57s1.06-3.61,3.13-3.61ZM49.06,29.45c.88,0,1.59-.75,1.59-2.11s-.7-2.11-1.59-2.11-1.59.75-1.59,2.11.7,2.11,1.59,2.11Z"/>
        <path id="logo-s" class="cls-1" d="M58.35,24.87l-1.01.92c-.31-.44-.79-.62-1.14-.62s-.66.22-.66.57c0,.31.26.53.66.66.97.35,2.51.66,2.51,2.11,0,1.28-.97,2.29-2.47,2.29s-2.42-1.01-2.73-1.85l1.37-.75c.26.66.7,1.14,1.41,1.14.53,0,.88-.26.88-.75,0-.57-.88-.7-1.72-1.06-.75-.31-1.41-.79-1.41-1.85s.88-2.03,2.2-2.03c.88.04,1.72.53,2.11,1.19Z"/>
        <polygon id="logo-w2" class="cls-1" points="22.86 23.86 21.62 28.66 20.43 23.86 18.85 23.86 17.7 28.66 16.73 25.89 16.6 26.19 16.07 28 16.95 30.82 18.45 30.82 19.64 26.33 20.83 30.82 22.37 30.82 24.57 23.86 22.86 23.86"/>
        <polygon id="logo-w3" class="cls-1" points="31.09 23.86 29.86 28.66 28.67 23.86 27.08 23.86 25.94 28.66 24.97 25.89 24.84 26.19 24.26 28 25.19 30.82 26.69 30.82 27.88 26.33 29.07 30.82 30.56 30.82 32.81 23.86 31.09 23.86"/>
        <path id="logo-w1" class="cls-1" d="M16.34,23.86l-2.2,6.91h-1.5l-1.19-4.45-1.19,4.49h-1.5l-2.2-6.91h1.72l1.23,4.76,1.19-4.76h1.59l1.19,4.76,1.23-4.76,1.63-.04h0Z"/>
        <path id="logo-p" class="cls-1" d="M60.95,28.57c.66,0,1.14.48,1.14,1.14s-.48,1.14-1.14,1.14-1.14-.48-1.14-1.14.48-1.14,1.14-1.14Z"/>
      </g>
      <g>
        <path class="cls-1" d="M24.48,34.28h.37v2.8h-.3l-1.44-2.09v2.09h-.37v-2.8h.29l1.45,2.1v-2.1Z"/>
        <path class="cls-1" d="M27.79,36.71c-.28.28-.62.42-1.03.42s-.75-.14-1.03-.42c-.28-.28-.42-.62-.42-1.03s.14-.75.42-1.03c.28-.28.62-.42,1.03-.42s.75.14,1.03.42.42.62.42,1.03-.14.75-.42,1.03ZM25.99,36.45c.21.21.46.31.77.31s.56-.11.77-.31c.21-.21.31-.47.31-.77s-.1-.57-.31-.78c-.21-.21-.46-.31-.77-.31s-.56.1-.77.31c-.21.21-.31.47-.31.78s.1.57.31.77Z"/>
        <path class="cls-1" d="M31.28,34.28v2.8h-.37v-2.19l-.92,1.52h-.04s-.92-1.53-.92-1.53v2.19h-.37v-2.8h.42l.9,1.49.89-1.49h.42Z"/>
        <path class="cls-1" d="M31.87,34.28h.37v2.8h-.37v-2.8Z"/>
        <path class="cls-1" d="M34.59,34.28h.37v2.8h-.3l-1.44-2.09v2.09h-.37v-2.8h.29l1.45,2.1v-2.1Z"/>
        <path class="cls-1" d="M35.93,36.73h1.3v.35h-1.67v-2.8h1.65v.35h-1.28v.86h1.18v.35h-1.18v.89Z"/>
        <path class="cls-1" d="M38.05,36.73h1.3v.35h-1.67v-2.8h1.65v.35h-1.28v.86h1.18v.35h-1.18v.89Z"/>
      </g>
    </g>
  </g>
</svg>