<?xml version="1.0" encoding="UTF-8"?>
<svg id="Layer_2" xmlns="http://www.w3.org/2000/svg" version="1.1" viewBox="0 0 538.8 564.6">
  <!-- Generator: Adobe Illustrator 29.1.0, SVG Export Plug-In . SVG Version: 2.1.0 Build 142)  -->
  <defs>
    <style>
      .st0 {
        fill: #191919;
      }
    </style>
  </defs>
  <g>
    <path class="st0" d="M537.7,296.9c-.4-4.5-6.4-6.9-11.8-6.6,0,0,0,0-.2,0-150.2-1.6-300.4-3.3-450.6-4.9-21.6-.2-43.1-.5-64.7-.7-3.4,0-8.3,1.9-8.8,5.5-13.3,110.6,54.9,216.9,169.2,257.8,110.7,39.5,240.3,7.4,313.1-78.3,41.8-49.3,59.6-110.9,53.6-172.6h0Z"/>
    <path class="st0" d="M516.1,314.5c-.4-3.9-5.8-5.9-10.6-5.7,0,0,0,0-.1,0-135.6-1.4-271.2-2.8-406.8-4.2-19.5-.2-38.9-.4-58.4-.6-3,0-7.5,1.7-7.9,4.7-12,95.3,49.5,187,152.8,222.2,99.9,34.1,217,6.4,282.7-67.5,37.8-42.5,53.8-95.6,48.4-148.8h0Z"/>
  </g>
  <g>
    <g>
      <path class="st0" d="M39.8,216.2c13.7,1.6,22.1,39.5,33.8,24.9,18.8-23.4-29.1-111.3-37.6-137.4-7.5-22.9-3.7-70.6,29-75.9,27.6-3.8,44.5,9.9,52.4,31.8,2.6,7.1,5.7,14.3,1.2,19.9-6.6,3.6-10.2,7.2-14.8,5.7-24.1-7.5-14-30.6-29.8-17.2-9.1,7.7,4.4,50.6,7,60.8,6.9,30.6,35.5,95.8,26.5,126-9.1,20-33,31.7-57.1,20.1-7.7-3.5-27.2-20.8-31.4-32.5-2.1-6.1-12.7-30.1,20.9-26.3h0Z"/>
      <path class="st0" d="M161.6,30.6c9.2,0,19.2,44.9,22.9,54.5,1.6,3.6,4.7,12.2,5.7,15.8,3.6,8.1,8.4,25.5,12.5,25.5,6.1,0,34.3-69.2,39.8-79.5,3.5-5.6,4.5-8.7,7.1-10.3,7.1-4.1,16.8-2.7,21,3.4,4.6,3,.7,26.6.3,40.9-2.4,97.1-3.6,81.5-3.4,180.7,0,10.7-6,14.3-13.7,15.9-6.6,2.1-13.8-1.4-16.4-6-3.6-7.1-.7-29.1-.8-42.9-.4-54.7,1.3-45.2,4.4-103-5.1,3.1-5.1,5.2-22.2,36.5-12.1,19-12.7,17-17.3,15.5-10.8-2-24.8-34.6-26.9-41.2-3.1-7.7-5.7-9.7-5.7-9.7,0,0-1.7,2-3,34.2-1.3,34.3,1,44.8-.3,72.9-.9,15.8,1.8,37.3-9.4,42-6.6,3.1-13.3,1.6-15.9-4-6.8-20.9-3.4-46-4.1-74.6-.1-16.9,1.1-65.2,2.2-124,.3-23-8-48,23.2-42.6h0Z"/>
      <path class="st0" d="M390.4,206.6c-.8,24-3.8,34.3-12.3,47.7-6.1,9.8-20.3,21.6-31,22.7-24,2.7-42-9.9-50.8-24.7-5.2-8.1-10.3-16.3-11.5-28-1.1-7.7,1.1-50.4,1-71.3-.2-31.2-1-44.8,9.1-63.2,5.5-9.8,16.7-21.6,27.9-23.7,31.7-5.9,52.2,2.7,62.5,23.1,8.6,17.1,5.3,92.5,5,117.6h0ZM356.9,106.1c-3.1-5.1-14.4-12.2-24.1-7.5-24,9.9-18.6,51.5-18.3,93.4.3,39.9.7,48.7,28.2,48.7s20.3-32.9,21.4-53.5c2.2-37.9,2.3-32.6.7-49.5-1.1-10.7-2.2-19.4-7.9-31.6h0Z"/>
      <path class="st0" d="M440.7,232.8c-1.5,10.2,74.5,3.6,78.6,16.3,2.7,14.8-2.4,25.1-12.1,25.1-29.1,1.7-71.2-4.6-79.9-4.5-23.5.2-17-77.9-16.7-108.1,3.2-49.1-4.8-126.3,12.7-126.4,14.7,0,13.9,24.8,16.6,61.8,2.8,38.5-2.9,89.3.8,135.7Z"/>
    </g>
    <path class="st0" d="M334.3,29.5c-1,9.2-5,15.4-12.7,17.5-9.2,2.6-17.9,2.7-26.6-1.9-16.9-6.5-14.5-26.5-6.9-35.2,4.1-4.6,10.2-5.7,15.8-5.7,11.2.4,21,6,27.2,15.6,2.1,2.5,2.1,6.6,3.1,9.7Z"/>
    <path class="st0" d="M386.7,47.2c-7.4,5.6-14.7,6.8-21.4,2.6-8.2-4.9-14.1-11.3-16.8-20.7C341.8,12.2,358,.4,369.6,0c6.2-.2,11.1,3.6,15,7.7,7.3,8.5,9.9,19.5,7,30.6-.5,3.2-3.4,6-5,8.9Z"/>
  </g>
</svg>