<?xml version="1.0" encoding="UTF-8"?>
<svg id="Layer_1" xmlns="http://www.w3.org/2000/svg" version="1.1" viewBox="0 0 140.9 32.3">
  <!-- Generator: Adobe Illustrator 29.1.0, SVG Export Plug-In . SVG Version: 2.1.0 Build 142)  -->
  <defs>
    <style>
      .st0 {
        fill: #231f20;
      }

      .st1 {
        fill: #1d1d1b;
      }

      .st2 {
        fill: #fff;
      }
    </style>
  </defs>
  <path class="st1" d="M111.9,21.9V3.3h8.1v18.6h-8.1ZM111.9,32.3v-8.3h8.1v8.3h-8.1Z"/>
  <path class="st0" d="M111.5,20.5V1.9h8.3v18.6h-8.3ZM111.5,29.5v-8.3h8.3v8.3h-8.3Z"/>
  <path class="st1" d="M120.8,30.5h-10.4V.8h10.4v29.8ZM112.5,28.4h6.2v-6.1h-6.2v6.1ZM112.5,19.4h6.2V2.9h-6.2v16.5Z"/>
  <path class="st2" d="M111.1,20.1V1.7h8.7v18.4h-8.7ZM111.1,29.5v-8.2h8.7v8.2h-8.7Z"/>
  <path class="st1" d="M120.4,30.2h-10V1h10v29.1ZM111.7,28.8h7.3v-6.8h-7.3v6.8ZM111.7,19.4h7.3V2.4h-7.3v17.1Z"/>
  <path class="st1" d="M1.7,32.3V3.9h13.6s.9,1,.9,1l.9-1h11.9l1.7,2v26.4h-8.5V12h-1.7v20.3h-8.5V12h-1.7v20.3H1.7Z"/>
  <path class="st1" d="M33.7,32.3l-1.5-1.8V6.8h7.7v18.2h3.1V6.8h7.7v23.7l-1.5,1.8h-15.3Z"/>
  <path class="st1" d="M52.1,32.3V6.8h16.8l1.5,1.8v23.7h-7.7V14.8h-3.1v17.5h-7.7Z"/>
  <path class="st1" d="M73.5,32.3l-1.5-1.8V8.6l1.5-1.8h15.3l1.5,1.8v7.3h-9.3v-1.8h-1.4v10.9h3.1v-1.8h7.7v7.3l-1.5,1.8h-15.3Z"/>
  <path class="st1" d="M91.9,32.3V6.8h7.7v9.1h3.1V6.8h7.7v25.5h-7.7v-9.1h-3.1v9.1h-7.7Z"/>
  <path class="st0" d="M1.1,29.5V1.1h13.6s.9,1,.9,1l.9-1h11.9l1.7,2v26.4h-8.5V9.2h-1.7v20.3h-8.5V9.2h-1.7v20.3H1.1Z"/>
  <path class="st1" d="M31.1,30.5H0V0h15.7v.2l.2-.2h12.9l2.3,2.7v27.8ZM22.6,28.4h6.4V3.5l-1.1-1.4h-10.9l-1.3,1.6-1.4-1.6H2.1v26.3h6.4V8.1h3.8v20.3h6.4V8.1h3.8v20.3Z"/>
  <path class="st0" d="M33.1,29.5l-1.5-1.8V4h7.7v18.2h3.1V4h7.7v23.7l-1.5,1.8h-15.3Z"/>
  <path class="st1" d="M48.9,30.5h-16.3l-2.1-2.5V2.9h9.8v18.2h.9V2.9h9.8v25.2l-2.1,2.5h0ZM33.6,28.4h14.3l1-1.1V5h-5.5v18.2h-5.2V5h-5.5v22.3l1,1.1h0Z"/>
  <path class="st0" d="M51.5,29.5V4h16.8l1.5,1.8v23.7h-7.7V11.3h-3.1v18.2h-7.7Z"/>
  <path class="st1" d="M70.9,30.5h-9.8V12.3h-.9v18.2h-9.8V2.9h18.4l2.1,2.5v25.1h0ZM63.2,28.4h5.5V6.2l-1-1.1h-15.3v23.4h5.5V10.2h5.2v18.2h0Z"/>
  <path class="st0" d="M72.9,29.5l-1.5-1.8V5.8l1.5-1.8h15.3l1.5,1.8v7.3h-7.7v-1.8h-3.1v10.9h3.1v-1.8h7.7v7.3l-1.5,1.8h-15.3Z"/>
  <path class="st1" d="M88.7,30.5h-16.3l-2.1-2.5V5.4l2.1-2.5h16.3l2.1,2.5v8.7h-9.8v-1.8h-.9v8.8h.9v-1.8h9.8v8.7l-2.1,2.5h0ZM73.4,28.4h14.3l1-1.1v-5.8h-5.5v1.8h-5.2v-13.1h5.2v1.8h5.5v-5.8l-1-1.1h-14.3l-1,1.1v21.1l1,1.1h0Z"/>
  <path class="st0" d="M91.3,29.5V4h7.7v9.1h3.1V4h7.7v25.5h-7.7v-9.1h-3.1v9.1h-7.7Z"/>
  <path class="st1" d="M110.7,30.5h-9.8v-9.1h-.9v9.1h-9.8V2.9h9.8v9.1h.9V2.9h9.8v27.6ZM103.1,28.4h5.5V5h-5.5v9.1h-5.2V5h-5.5v23.4h5.5v-9.1h5.2v9.1Z"/>
  <path class="st2" d="M1.1,29.1V.7h13.6s.9,1,.9,1l.9-1h11.9l1.7,2v26.4h-8.5V8.8h-1.7v20.3h-8.5V8.8h-1.7v20.3H1.1Z"/>
  <path class="st1" d="M30.7,29.8h-9.9V9.5h-.4v20.3h-9.9V9.5h-.4v20.3H.4V0h15v.4l.2.2.5-.7h12.6l2.1,2.5v27.3h0ZM22.2,28.4h7.2V3l-1.3-1.6h-11.3l-1.2,1.4-1.2-1.4H1.7v27.1h7.2V8.1h3.1v20.3h7.2V8.1h3.1v20.3Z"/>
  <path class="st2" d="M33.1,29.1l-1.5-1.8V3.6h7.7v18.2h3.1V3.6h7.7v23.7l-1.5,1.8h-15.3Z"/>
  <path class="st1" d="M48.7,29.8h-15.9l-1.9-2.2V2.9h9v18.2h1.7V2.9h9v24.6l-1.9,2.2h0ZM33.4,28.4h14.7l1.2-1.4V4.2h-6.3v18.2h-4.4V4.2h-6.3v22.8l1.2,1.4h0Z"/>
  <path class="st2" d="M51.5,29.1V3.6h16.8l1.5,1.8v23.7h-7.7V10.9h-3.1v18.2h-7.7Z"/>
  <path class="st1" d="M70.5,29.8h-9V11.5h-1.7v18.2h-9V2.9h17.8l1.9,2.3v24.6h0ZM62.9,28.4h6.3V5.6l-1.2-1.4h-15.9v24.2h6.3V10.2h4.4v18.2h0Z"/>
  <path class="st2" d="M72.9,29.1l-1.5-1.8V5.4l1.5-1.8h15.3l1.5,1.8v7.3h-7.7v-1.8h-3.1v10.9h3.1v-1.8h7.7v7.3l-1.5,1.8h-15.3Z"/>
  <path class="st1" d="M88.5,29.8h-15.9l-1.9-2.2V5.1l1.9-2.3h15.9l1.9,2.3v8.2h-9v-1.8h-1.7v9.6h1.7v-1.8h9v8.2l-1.9,2.2h0ZM73.2,28.4h14.7l1.2-1.4v-6.4h-6.3v1.8h-4.4v-12.3h4.4v1.8h6.3v-6.4l-1.2-1.4h-14.7l-1.2,1.4v21.4l1.2,1.4Z"/>
  <path class="st2" d="M91.3,29.1V3.6h7.7v9.1h3.1V3.6h7.7v25.5h-7.7v-9.1h-3.1v9.1h-7.7Z"/>
  <path class="st1" d="M110.3,29.8h-9v-9.1h-1.7v9.1h-9V2.9h9v9.1h1.7V2.9h9v26.9ZM102.7,28.4h6.3V4.2h-6.3v9.1h-4.4V4.2h-6.3v24.2h6.3v-9.1h4.4v9.1Z"/>
  <path class="st1" d="M121.7,6.8v7.3h7.8l-7.8,12.5v5.7h18.4v-7.3h-6.8l6.8-11.1v-7.2h-18.4Z"/>
  <path class="st0" d="M121.4,4v7.3h7.8l-7.8,12.5v5.7h18.4v-7.3h-6.8l6.8-11.1V4h-18.4Z"/>
  <path class="st1" d="M140.9,30.5h-20.5v-7.1l7-11.1h-7V2.9h20.5v8.5l-5.9,9.7h5.9v9.4h0ZM122.5,28.4h16.3v-5.2h-7.6l7.6-12.4v-5.8h-16.3v5.2h8.7l-8.7,13.9v4.4h0Z"/>
  <path class="st2" d="M121.4,4v7.3h7.8l-7.8,12.5v5.7h18.4v-7.3h-6.8l6.8-11.1V4h-18.4Z"/>
  <path class="st1" d="M140.5,30.2h-19.7v-6.6l7.3-11.6h-7.3V3.3h19.7v8l-6.2,10.2h6.2v8.6h0ZM122.1,28.8h17v-5.9h-7.3l7.3-11.9v-6.3h-17v5.9h8.4l-8.4,13.4v4.9Z"/>
</svg>