<?xml version="1.0" encoding="UTF-8"?>
<svg id="Layer_1" xmlns="http://www.w3.org/2000/svg" version="1.1" viewBox="0 0 623 218">
  <!-- Generator: Adobe Illustrator 29.1.0, SVG Export Plug-In . SVG Version: 2.1.0 Build 142)  -->
  <defs>
    <style>
      .st0 {
        fill: #191919;
      }
    </style>
  </defs>
  <path class="st0" d="M129.1,185.9h-14.2l-18.6-75.8h20l13.8,58.5h3.5l13.8-58.5h20l-26.7,107.6h-19.8l8.3-31.8Z"/>
  <path class="st0" d="M180.7,110.2h20.2v4.1c8.2-4.8,12.7-5.9,18.5-5.9,19.2,0,28.6,12,28.6,40.3s-10,39.1-34.1,39.1-7.7-.3-12.9-1.2v31.2h-20.3v-107.6h0ZM227.4,148.7c0-15.3-3.9-22.1-13.6-22.1s-7.1.8-10.9,2.3l-1.8.8v39.7c4.5.6,8.3.9,10.9.9,11.5,0,15.5-6.2,15.5-21.5Z"/>
  <path class="st0" d="M258.8,149.9c0-27.7,10.6-41.5,33.9-41.5s32.6,11.4,32.6,34.3l-1.5,14.1h-44.5c.6,10.6,4.5,13.2,17,13.2s17.7-.5,22.1-.9l4.2-.5.3,15c-11.7,2.9-22.4,4.2-30.6,4.2-23.8,0-33.5-11.4-33.5-37.9ZM305.3,141.3c0-12.1-3.3-16.2-12.7-16.2s-13.3,4.5-13.5,16.2h26.2Z"/>
  <path class="st0" d="M338.6,110.2h20.1v8c8.5-5,16.5-8.3,24.2-9.9v20.5c-8.2,1.7-15.2,3.5-21.1,5.3l-3,1.1v50.8h-20.3v-75.7Z"/>
  <path class="st0" d="M41.3,124.1h-20.7v-41.2H0v82.4h0v20.6h20.6v-41.2h20.7v-20.7Z"/>
  <path class="st0" d="M82.6,103.5v-20.6h-20.7v41.2l20.7-20.6Z"/>
  <path class="st0" d="M82.6,165.3h-20.6v20.7h20.6v-20.7Z"/>
  <path class="st0" d="M62,165.3v-20.6h-20.7l20.7-20.6h20.7v20.6l-20.7,20.6Z"/>
  <path class="st0" d="M185.8,41.9V.8h-41.2l-41.2,41.1h41.2v41.1l41.2-41.1Z"/>
  <path class="st0" d="M434.6,82.9h-37.9v103h20.9v-30h17c24.1,0,36.7-13.2,36.7-37.3s-12.3-35.8-36.7-35.8ZM434.5,138.1h-16.8v-37.3h16.8c10.8,0,15.6,5.2,15.6,17.9s-5.2,19.4-15.6,19.4Z"/>
  <path class="st0" d="M542.6,153.1v-19.3c0-17.7-8-25.5-27.4-25.5s-20.2,1.5-30.9,4.4l.6,14.1c5.9-.5,21.4-1.2,28.5-1.2s8.9,2,8.9,8.2v4.7l-16.2,1.2c-18,1.2-26.5,7-26.5,23.2s7.9,24.9,23.5,24.9,15-1.8,22.3-5.3c5.3,3.6,17.3,5.2,17.3,5.2v-34.6h0ZM522.9,168.9l-2.3.6c-4.5,1.2-8.8,1.8-12.6,1.8s-7.4-2.7-7.4-8.3,2.9-8.6,8.5-9.1l13.8-1.2v16.2h0Z"/>
  <path class="st0" d="M603,110.2l-13.8,58.5h-3.5l-13.8-58.5h-20l18.6,75.7h14.2l-8.3,31.8h19.9l26.7-107.6h-20Z"/>
</svg>