<?xml version="1.0" encoding="UTF-8"?>
<svg id="Layer_1" xmlns="http://www.w3.org/2000/svg" version="1.1" viewBox="0 0 2500 678">
  <!-- Generator: Adobe Illustrator 29.1.0, SVG Export Plug-In . SVG Version: 2.1.0 Build 142)  -->
  <defs>
    <style>
      .st0 {
        fill: none;
        stroke: #fff;
        stroke-miterlimit: 5.7;
        stroke-width: .9px;
      }

      .st1 {
        fill: #fff;
      }

      .st2 {
        fill: #191919;
      }
    </style>
  </defs>
  <path class="st1" d="M2500,625.4c0,36.5-33.5,38.8-33.5,38.8H383.8c-243.9,0-333.4-129.1-365.9-212.6C2.4,411.2,0,381.1,0,381.1V52.5C0,16,33.5,13.8,33.5,13.8h2433s33.5,2.2,33.5,38.7v572.9Z"/>
  <path class="st0" d="M2500,625.4c0,36.5-33.5,38.8-33.5,38.8H383.8c-243.9,0-333.4-129.1-365.9-212.6C2.4,411.2,0,381.1,0,381.1V52.5C0,16,33.5,13.8,33.5,13.8h2433s33.5,2.2,33.5,38.7v572.9Z"/>
  <path class="st1" d="M470,98.4l-40.4,272.3-38.3-272.3h-37.6l-39.8,272.3s-33-235.5-35.1-247.9c-2.3-12.3-4.6-24.4-25.6-24.4h-61.5v8c20.8,0,32,13.9,34.9,37.6l52.2,365.9h40.5l37.4-272.3,33.4,272.3h42.6l53.8-364.6c5.9-27.8,12.6-38.8,34-38.8v-8h-50.5ZM559.3,186.9c15.7,0,27.9-14.1,27.9-31.6s-12.2-30.9-27.9-30.9-28.5,14-28.5,30.9,12.9,31.6,28.5,31.6M1246.7,498.6c-27.1,0-35.5-41.9-35.5-134.7s8.4-134.6,35.5-134.6,36.3,42,36.3,134.6-8.9,134.7-36.3,134.7M1246.7,212.6c-49.9,0-87.6,61.5-87.6,151.2s37.7,151.4,87.6,151.4,88-61.1,88-151.4-37.3-151.2-88-151.2M584.5,469.5v-251.4h-69v8.9c17.1,0,18.8,10.6,18.8,33.5v210.4c-.5,22.4-2.2,29.4-20.4,29.4v9.5h89.7v-9c-17.8,0-19.2-7.5-19.2-31.3M902.5,273.7c0,11.6,5,23.9,15.7,32.7,10.3,9.5,22.2,19.1,40.2,33.1,40.2,31.2,50.3,59.5,50.3,91.4,0,49-39.1,82.6-84.5,82.6s-42.1-4.6-60.5-7.9v-88h15.4c2.2,39.5,8.3,78.7,46.2,78.7s39.1-17.4,39.1-44.7-4.8-32.1-16.9-44.3c-7.4-8.1-25.3-24.8-41.9-37.7-34.8-26.5-45.7-45.2-45.7-80.5s32.3-74.9,76.5-74.9,39.6,3.9,58.3,8.4v79.2h-15.3c-3.3-37.6-12.7-70.4-42.6-70.4s-34.2,16.7-34.2,42.1M813.5,464v-184.6c0-40.4-16.9-66.8-59.6-66.8s-43.5,9.7-56.8,19.2l-1.3-13.7h-65.8v8.9c17.8,0,20,8.5,20,33.5v208.3c0,21.8,0,31.6-18.5,31.6v9.5h87.3v-9c-15.3,0-19-7.1-19-30.9v-196.2c0-19.5,14.1-37.9,36-37.9s27.5,16.2,27.5,40v187.8c0,36,4.8,46.3,34.8,46.3h37.6v-9.5c-17.4-2.7-22.3-14.9-22.3-36.3M1537.4,464v-184.6c0-40.4-16.7-66.8-59.3-66.8s-43.7,9.7-56.8,19.2l-1.1-13.7h-65.8v8.9c17.7,0,19.6,8.5,19.6,33.5v208.3c0,21.8,0,31.6-18.5,31.6v9.5h87.3v-9c-15,0-18.6-7.1-18.7-30.9v-196.2c0-19.5,13.9-37.9,36.2-37.9s27.2,16.2,27.2,40v187.8c0,36,4.7,46.3,34.8,46.3h37.4v-9.5c-17.3-2.7-22.3-14.9-22.3-36.3M1086.2,160.9c-9,35.3-32.6,59.8-61.7,66.1v13.1h14.1c8,0,12,3.1,12,14.5v190.7c0,56.5,25.1,64.3,62.3,64.3h40.2v-14.4c-39.6,0-52.2-13.7-52.2-51.8v-191.5c0-10.3,2-14.4,11.6-14.4h39.6v-19.2h-39.6c-10.6,0-11.6-3.7-11.6-16.9v-45.3h-2.5c-4.1,0-10.4-.8-12.1,4.8M2160.8,323.8c-.3,2-1,2-2,1.3-5.1-2.8-18.7,4.1-28.6,9.8-11.3,6.4-23.8,15.2-34.1,26-2,1.9-3.4,1-3.4.5,0-6,.3-9.5-1.7-9.5s-16.8,6.7-18.3,4.8c-2.3-2.8,4.5-12.2,2.4-14.3-2.8-3.4-20.4,1-20.4,1-2.5-11.6,8.5-42.8,18.3-42,9.5,1,41.8,0,49-.5,1.4-.3,6-.8,8-.8,2.7.5,5.1,3.3.5,4.3-13,1.9-27.4,8-25.5,9.5,4.8,4.1,29.9,7.3,33.1-3.7.1-.8.1-5.1.5-5.1,7.8-1.5,21.5-2,22,8.8.1,3.2.3,6.6.1,9.8M2325.6,309.1c-4.2,1.4-18,5.6-23.3,5.6s-1.8-1.5-.8-2c10.3-7.5,15.7-16.4,15.7-19.4s-.5-1.5-1.5-1.5c-9.7,0-29.5,29-129.1,29.3-6.4,0-12.3-.3-18.3-.5.4-15-1.9-24.8-29.5-23.8-.9-5.2-15.8-4.2-27.2-3.4-34,2.4-136.3,6.5-220.2-115.7-10.2,3.7.5,29.2-7.4,23.8-7.3-5.2-47.2-57.9-55-103.1-23.8,2.5-7.1,69.9-16.7,61.4-18.2-16.9-33.9-61.4-35.1-61.4-8.4-.6-13.6,17.4-7.8,34.6,5.2,15.5,20,43.4,9,34.1-14.9-11.7-24.7-24.8-34.2-38.2-15.4-21.9-16-8.1-14,4.1,4.5,26.2,44.7,58.4,34.8,57.7-7.6-.3-30.6-16.4-42.9-27.5-12.2-10.3-15-4.2-7.1,9.4,14.4,24.4,53.1,50.9,43.4,51.4-21.8,1.3-45.4-14-45.7-7.4,0,0,0,8.7,13.9,19.9,6.4,5.1,13.9,10.1,23.6,14,4.8,1.9,4.8,6.6-1.7,6.6s-9.2-1.9-10.1-1.9c-10.9,0,6,17.9,12.5,25,32.3,36.5,134.2,79.7,169.1,63.5,3.4-1.3,5.2,1.7,2.5,3.7-5.3,3.9-17.2,6.7-18.3,7-34,9.3-77.1-3.1-83.5,4.2-3.8,4.7,1.3,7.6,5.9,10.3,3.2,2,3.4,5.3-3.6,6.6-19.6,3.1-26,14.5-11.6,18,9.7,2.2,7.1,5.6,1,7.5-15.1,5.2-21.3,21,5.3,24.1,31.3,3.9,19.1,7.5,11.6,12.1-10.1,6.2.6,18.1,17.2,14,16.7-4.7,22.7-5.2,19.4,3.8-3.1,7.9,23,12.6,39.2,1,3.6-2.7,8.3-6.4,12.9-6.4,6.9,0,7,6.9,17.6,8.1h.1s11.5,1.4,24.1-11.6c11.7-11.6,24.1-34.4,25.8-37.3,21.4-1.5,55.5-7.6,73.3-19.4,163.3-1.7,285.9-63.1,295.3-88.6,1.8-5.1-25.5,7.3-28.4,8.3"/>
  <path class="st2" d="M2500,340.4V52.5c0-36.5-33.5-38.6-33.5-38.6H33.5S0,15.9,0,52.5v265C0,332.5,19.9,591.1,340,591.1h2160v-250.7Z"/>
  <path class="st2" d="M2466.5,664.2s33.5-2.3,33.5-38.8v-3.7l-2145.3-.5c-205.1,0-296.2-93.3-336.7-169.6,32.5,83.5,122,212.6,366,212.6h2082.6Z"/>
  <path class="st1" d="M470,98.4l-40.4,272.3-38.3-272.3h-37.6l-39.8,272.3s-33-235.5-35.1-247.9c-2.3-12.3-4.6-24.4-25.6-24.4h-61.5v8c20.8,0,32,13.9,34.9,37.6l52.2,365.9h40.5l37.4-272.3,33.4,272.3h42.6l53.8-364.6c5.9-27.8,12.6-38.8,34-38.8v-8h-50.5ZM559.3,186.9c15.7,0,27.9-14.1,27.9-31.6s-12.2-30.9-27.9-30.9-28.5,14-28.5,30.9,12.9,31.6,28.5,31.6M1246.7,498.6c-27.1,0-35.5-41.9-35.5-134.7s8.4-134.6,35.5-134.6,36.3,42,36.3,134.6-8.9,134.7-36.3,134.7M1246.7,212.6c-49.9,0-87.6,61.5-87.6,151.2s37.7,151.4,87.6,151.4,88-61.1,88-151.4-37.3-151.2-88-151.2M584.5,469.5v-251.4h-69v8.9c17.1,0,18.8,10.6,18.8,33.5v210.4c-.5,22.4-2.2,29.4-20.4,29.4v9.5h89.7v-9c-17.8,0-19.2-7.5-19.2-31.3M902.5,273.7c0,11.6,5,23.9,15.7,32.7,10.3,9.5,22.2,19.1,40.2,33.1,40.2,31.2,50.3,59.5,50.3,91.4,0,49-39.1,82.6-84.5,82.6s-42.1-4.6-60.5-7.9v-88h15.4c2.2,39.5,8.3,78.7,46.2,78.7s39.1-17.4,39.1-44.7-4.8-32.1-16.9-44.3c-7.4-8.1-25.3-24.8-41.9-37.7-34.8-26.5-45.7-45.2-45.7-80.5s32.3-74.9,76.5-74.9,39.6,3.9,58.3,8.4v79.2h-15.3c-3.3-37.6-12.7-70.4-42.6-70.4s-34.2,16.7-34.2,42.1M813.5,464v-184.6c0-40.4-16.9-66.8-59.6-66.8s-43.5,9.7-56.8,19.2l-1.3-13.7h-65.8v8.9c17.8,0,20,8.5,20,33.5v208.3c0,21.8,0,31.6-18.5,31.6v9.5h87.3v-9c-15.3,0-19-7.1-19-30.9v-196.2c0-19.5,14.1-37.9,36-37.9s27.5,16.2,27.5,40v187.8c0,36,4.8,46.3,34.8,46.3h37.6v-9.5c-17.4-2.7-22.3-14.9-22.3-36.3M1537.4,464v-184.6c0-40.4-16.7-66.8-59.3-66.8s-43.7,9.7-56.8,19.2l-1.1-13.7h-65.8v8.9c17.7,0,19.6,8.5,19.6,33.5v208.3c0,21.8,0,31.6-18.5,31.6v9.5h87.3v-9c-15,0-18.6-7.1-18.7-30.9v-196.2c0-19.5,13.9-37.9,36.2-37.9s27.2,16.2,27.2,40v187.8c0,36,4.7,46.3,34.8,46.3h37.4v-9.5c-17.3-2.7-22.3-14.9-22.3-36.3M1086.2,160.9c-9,35.3-32.6,59.8-61.7,66.1v13.1h14.1c8,0,12,3.1,12,14.5v190.7c0,56.5,25.1,64.3,62.3,64.3h40.2v-14.4c-39.6,0-52.2-13.7-52.2-51.8v-191.5c0-10.3,2-14.4,11.6-14.4h39.6v-19.2h-39.6c-10.6,0-11.6-3.7-11.6-16.9v-45.3h-2.5c-4.1,0-10.4-.8-12.1,4.8M2160.8,323.8c-.3,2-1,2-2,1.3-5.1-2.8-18.7,4.1-28.6,9.8-11.3,6.4-23.8,15.2-34.1,26-2,1.9-3.4,1-3.4.5,0-6,.3-9.5-1.7-9.5s-16.8,6.7-18.3,4.8c-2.3-2.8,4.5-12.2,2.4-14.3-2.8-3.4-20.4,1-20.4,1-2.5-11.6,8.5-42.8,18.3-42,9.5,1,41.8,0,49-.5,1.4-.3,6-.8,8-.8,2.7.5,5.1,3.3.5,4.3-13,1.9-27.4,8-25.5,9.5,4.8,4.1,29.9,7.3,33.1-3.7.1-.8.1-5.1.5-5.1,7.8-1.5,21.5-2,22,8.8.1,3.2.3,6.6.1,9.8M2325.6,309.1c-4.2,1.4-18,5.6-23.3,5.6s-1.8-1.5-.8-2c10.3-7.5,15.7-16.4,15.7-19.4s-.5-1.5-1.5-1.5c-9.7,0-29.5,29-129.1,29.3-6.4,0-12.3-.3-18.3-.5.4-15-1.9-24.8-29.5-23.8-.9-5.2-15.8-4.2-27.2-3.4-34,2.4-136.3,6.5-220.2-115.7-10.2,3.7.5,29.2-7.4,23.8-7.3-5.2-47.2-57.9-55-103.1-23.8,2.5-7.1,69.9-16.7,61.4-18.2-16.9-33.9-61.4-35.1-61.4-8.4-.6-13.6,17.4-7.8,34.6,5.2,15.5,20,43.4,9,34.1-14.9-11.7-24.7-24.8-34.2-38.2-15.4-21.9-16-8.1-14,4.1,4.5,26.2,44.7,58.4,34.8,57.7-7.6-.3-30.6-16.4-42.9-27.5-12.2-10.3-15-4.2-7.1,9.4,14.4,24.4,53.1,50.9,43.4,51.4-21.8,1.3-45.4-14-45.7-7.4,0,0,0,8.7,13.9,19.9,6.4,5.1,13.9,10.1,23.6,14,4.8,1.9,4.8,6.6-1.7,6.6s-9.2-1.9-10.1-1.9c-10.9,0,6,17.9,12.5,25,32.3,36.5,134.2,79.7,169.1,63.5,3.4-1.3,5.2,1.7,2.5,3.7-5.3,3.9-17.2,6.7-18.3,7-34,9.3-77.1-3.1-83.5,4.2-3.8,4.7,1.3,7.6,5.9,10.3,3.2,2,3.4,5.3-3.6,6.6-19.6,3.1-26,14.5-11.6,18,9.7,2.2,7.1,5.6,1,7.5-15.1,5.2-21.3,21,5.3,24.1,31.3,3.9,19.1,7.5,11.6,12.1-10.1,6.2.6,18.1,17.2,14,16.7-4.7,22.7-5.2,19.4,3.8-3.1,7.9,23,12.6,39.2,1,3.6-2.7,8.3-6.4,12.9-6.4,6.9,0,7,6.9,17.6,8.1h.1s11.5,1.4,24.1-11.6c11.7-11.6,24.1-34.4,25.8-37.3,21.4-1.5,55.5-7.6,73.3-19.4,163.3-1.7,285.9-63.1,295.3-88.6,1.8-5.1-25.5,7.3-28.4,8.3"/>
</svg>