<?xml version="1.0" encoding="UTF-8"?>
<svg id="Layer_1" xmlns="http://www.w3.org/2000/svg" version="1.1" viewBox="0 0 658.5 36.6">
  <!-- Generator: Adobe Illustrator 29.1.0, SVG Export Plug-In . SVG Version: 2.1.0 Build 142)  -->
  <defs>
    <style>
      .st0 {
        fill: #191919;
      }
    </style>
  </defs>
  <path class="st0" d="M28.1,36.2L8.8,17.5v17.6c0,1.1-2.2,1.1-4.4,1.1s-4.4,0-4.4-1V.8C0,0,.6,0,1.2,0S2.5,0,2.9.3l19.3,19.1V1.4c0-1,2.2-1,4.4-1s4.4,0,4.4,1v34.4c0,.8-.6.8-1.2.8s-1.2,0-1.6-.3Z"/>
  <path class="st0" d="M47.6,35.2c0,0,0-.2,0-.4L64.2.5C64.4,0,65.1,0,65.7,0S66.9,0,67.2.5l16.4,34.4c0,.1,0,.3,0,.4,0,.9-2.2,1-4.4,1s-4.9,0-5.3-.8l-1.8-4.5h-13.1l-1.8,4.5c-.4.8-2.8.8-5.3.8-2.2,0-4.4,0-4.4-1ZM62.3,23.8h6.9l-3.4-8-3.4,8Z"/>
  <path class="st0" d="M101.3,35.2V9.1h-9.4c-1,0-1-2.1-1-4.3s0-4.2,1.1-4.2h27.5c1.1,0,1.1,2.1,1.1,4.2s0,4.3-1.1,4.3h-9.4v26.1c0,1.1-2.2,1.1-4.4,1.1-2.2,0-4.4,0-4.4-1Z"/>
  <path class="st0" d="M138.8,25V1.4c0-1,2.2-1,4.4-1s4.4,0,4.4,1.1v21c0,3.2,2.3,5.1,5.6,5.1s5.6-1.7,5.6-5.1V1.4c0-1,2.2-1,4.4-1s4.4,0,4.4,1.1v23.6c0,6.3-5.4,11.5-14.5,11.5-9.3,0-14.4-5.5-14.4-11.5Z"/>
  <path class="st0" d="M188.7,35.2V1.3c0-.4.3-.7.7-.7h14.7c5.9,0,11.1,4.6,11.1,11.7s-2.1,7.9-5.2,9.8l6.9,12.9c0,.2.1.3.1.4,0,.9-2.1.9-4.1.9s-4.7,0-5-.8l-5.8-11.5h-4.7v11.3c0,1-2.2,1-4.4,1s-4.4,0-4.4-1ZM206,12.3c0-1.8-1.4-3.2-3.2-3.2h-5.3v6.4h5.3c1.8,0,3.2-1.4,3.2-3.2Z"/>
  <path class="st0" d="M235.3,35.2V1.3c0-.4.3-.7.7-.7h23.3c1.1,0,1.1,2.1,1.1,4.2s0,4.3-1.1,4.3h-15.2v4.9h12.6c1,0,1.1,1.9,1.1,3.7s0,3.7-1.1,3.7h-12.6v6h15.2c1.1,0,1.1,2.1,1.1,4.2s0,4.2-1.1,4.2h-23.3c-.4,0-.7-.3-.7-.7Z"/>
  <path class="st0" d="M303.4,35.2V1.4c0-1,2.2-1,4.4-1s4.4,0,4.4,1v12h15.4V1.4c0-1,2.2-1,4.4-1s4.4,0,4.4,1v33.8c0,1-2.2,1.1-4.4,1.1s-4.4,0-4.4-1v-13.3h-15.4v13.3c0,1-2.2,1.1-4.4,1.1-2.2,0-4.4,0-4.4-1Z"/>
  <path class="st0" d="M357.9,35.2V1.3c0-.4.3-.7.7-.7h23.3c1.1,0,1.1,2.1,1.1,4.2s0,4.3-1.1,4.3h-15.2v4.9h12.6c1,0,1.1,1.9,1.1,3.7s0,3.7-1.1,3.7h-12.6v6h15.2c1.1,0,1.1,2.1,1.1,4.2s0,4.2-1.1,4.2h-23.3c-.4,0-.7-.3-.7-.7Z"/>
  <path class="st0" d="M402.3,35.2V1.3c0-.4.3-.7.7-.7h11.7c10.3,0,18.6,6.8,18.6,17.7s-8.3,17.7-18.6,17.7h-11.7c-.4,0-.7-.3-.7-.7ZM423.8,18.3c0-5.6-4.4-9.2-9.7-9.2h-3v18.4h3c5.4,0,9.7-3.6,9.7-9.2Z"/>
  <path class="st0" d="M449.8,18.3c0-10.1,8.2-18.2,18.4-18.2s18.4,8.2,18.4,18.2-8.2,18.2-18.4,18.2-18.4-8.2-18.4-18.2ZM477.1,18.3c0-5.2-3.8-9.3-8.9-9.3s-8.9,4-8.9,9.3,3.8,9.3,8.9,9.3c5.1,0,8.9-4.1,8.9-9.3Z"/>
  <path class="st0" d="M534,36.2l-19.3-18.7v17.6c0,1.1-2.2,1.1-4.4,1.1s-4.4,0-4.4-1V.8C505.9,0,506.5,0,507.1,0S508.4,0,508.8.3l19.3,19.1V1.4c0-1,2.2-1,4.4-1s4.4,0,4.4,1v34.4c0,.8-.6.8-1.2.8s-1.2,0-1.6-.3Z"/>
  <path class="st0" d="M558.4,35.1V1.4c0-1,2.2-1,4.4-1s4.4,0,4.4,1v33.8c0,1-2.2,1.1-4.4,1.1-2.2,0-4.4,0-4.4-1.1Z"/>
  <path class="st0" d="M586,31.4c-.1-.1-.2-.3-.2-.5,0-.8.8-2,1.7-3.2,1-1.4,2.2-2.8,3-2.8s.2,0,.3.1c1.6,1.4,5,3.1,7.8,3.1s4.5-1,4.5-2.4-2.2-2.4-4.7-3.5c-4.5-1.8-11-4.6-11-11.3S592.7,0,600.7,0s9.1,1.6,11.5,3.8c.2.1.2.4.2.6,0,.8-.7,2.2-1.4,3.3-1,1.6-2.2,3.1-3.2,3.1s-.4,0-.5-.1c-1.5-1.1-4.2-2.1-6.6-2.1s-3.9.9-3.9,2.1,1.9,2,4.3,3c4.5,1.8,11.5,4.7,11.5,12.1s-6.2,10.8-14.1,10.8c-4.8,0-9.9-2-12.6-5.2Z"/>
  <path class="st0" d="M639.3,35.2V9.1h-9.4c-1,0-1-2.1-1-4.3s0-4.2,1-4.2h27.5c1,0,1,2.1,1,4.2s0,4.3-1,4.3h-9.4v26.1c0,1.1-2.2,1.1-4.4,1.1-2.2,0-4.4,0-4.4-1Z"/>
</svg>