<?xml version="1.0" encoding="UTF-8"?>
<svg id="Layer_2" data-name="Layer 2" xmlns="http://www.w3.org/2000/svg" viewBox="0 0 182.21 34">
  <defs>
    <style>
      .cls-1 {
        stroke: #fff;
        stroke-miterlimit: 10;
        stroke-width: .25px;
      }

      .cls-1, .cls-2 {
        fill: #fff;
      }

      .cls-3 {
        fill: #fcf951;
      }
    </style>
  </defs>
  <g id="Layer_1-2" data-name="Layer 1">
    <g>
      <g>
        <path class="cls-2" d="M49.72,21.18h5.3v2.04h-7.52v-12.66h2.22v10.62Z"/>
        <path class="cls-2" d="M55.84,18.94c0-2.68,1.75-4.54,4.26-4.54s4.19,1.71,4.19,4.38v.64l-6.44.02c.16,1.51.95,2.27,2.36,2.27,1.16,0,1.92-.45,2.17-1.26h1.96c-.36,1.87-1.92,3-4.16,3-2.55,0-4.33-1.85-4.33-4.5ZM57.9,18.09h4.3c0-1.18-.81-1.96-2.08-1.96s-2.01.68-2.22,1.96Z"/>
        <path class="cls-2" d="M65.99,23.22v-8.56h1.94l.17,1c.43-.71,1.3-1.26,2.53-1.26,1.3,0,2.2.64,2.65,1.63.43-.99,1.44-1.63,2.74-1.63,2.08,0,3.22,1.25,3.22,3.22v5.59h-2.1v-5.04c0-1.23-.66-1.87-1.66-1.87s-1.8.66-1.8,2.06v4.85h-2.11v-5.06c0-1.19-.64-1.84-1.65-1.84s-1.82.66-1.82,2.04v4.85h-2.11Z"/>
        <path class="cls-2" d="M85.39,14.42c2.65,0,4.57,1.84,4.57,4.5s-1.92,4.5-4.57,4.5-4.57-1.84-4.57-4.5,1.92-4.5,4.57-4.5ZM85.39,21.54c1.45,0,2.46-1.06,2.46-2.61s-1-2.62-2.46-2.62-2.46,1.06-2.46,2.62,1,2.61,2.46,2.61Z"/>
        <path class="cls-2" d="M91.65,23.22v-8.56h1.96l.17,1.11c.54-.87,1.58-1.37,2.74-1.37,2.15,0,3.26,1.33,3.26,3.55v5.27h-2.11v-4.76c0-1.44-.71-2.13-1.8-2.13-1.3,0-2.1.9-2.1,2.29v4.61h-2.11Z"/>
        <path class="cls-2" d="M102.65,23.22v-6.79h-1.65v-1.77h1.65v-2.67h2.11v2.67h1.66v1.77h-1.66v6.79h-2.11Z"/>
        <path class="cls-2" d="M113.11,16.59h-.78c-1.52,0-2.48.81-2.48,2.48v4.16h-2.11v-8.54h1.99l.12,1.25c.36-.85,1.18-1.42,2.32-1.42.29,0,.59.03.94.12v1.96Z"/>
        <path class="cls-2" d="M113.76,18.94c0-2.68,1.75-4.54,4.26-4.54s4.19,1.71,4.19,4.38v.64l-6.44.02c.16,1.51.95,2.27,2.36,2.27,1.16,0,1.92-.45,2.17-1.26h1.96c-.36,1.87-1.92,3-4.16,3-2.55,0-4.33-1.85-4.33-4.5ZM115.82,18.09h4.3c0-1.18-.81-1.96-2.08-1.96s-2.01.68-2.22,1.96Z"/>
        <path class="cls-2" d="M123.41,18.94c0-2.68,1.75-4.54,4.26-4.54s4.19,1.71,4.19,4.38v.64l-6.44.02c.16,1.51.95,2.27,2.36,2.27,1.16,0,1.92-.45,2.17-1.26h1.96c-.36,1.87-1.92,3-4.16,3-2.55,0-4.33-1.85-4.33-4.5ZM125.47,18.09h4.3c0-1.18-.81-1.96-2.08-1.96s-2.01.68-2.22,1.96Z"/>
        <path class="cls-2" d="M133.64,22.35c0-.59.5-1.09,1.09-1.09s1.09.5,1.09,1.09-.5,1.06-1.09,1.06-1.09-.48-1.09-1.06Z"/>
        <path class="cls-1" d="M138.69,20.86c0,.97.73,1.58,1.91,1.58,1.3,0,2.06-.55,2.06-1.45,0-.69-.35-1.09-1.33-1.33l-1.44-.36c-1.45-.36-2.17-1.13-2.17-2.27,0-1.47,1.23-2.41,3.03-2.41s2.91.97,2.96,2.53h-1.16c-.03-.97-.71-1.54-1.84-1.54s-1.84.5-1.84,1.4c0,.64.45,1.09,1.37,1.32l1.44.36c1.45.36,2.11,1.04,2.11,2.25,0,1.51-1.28,2.49-3.19,2.49s-3.07-1-3.07-2.56h1.14Z"/>
        <path class="cls-1" d="M146.52,23.22v-7.38h-1.68v-1h1.68v-2.65h1.18v2.65h1.68v1h-1.68v7.38h-1.18Z"/>
        <path class="cls-1" d="M158.02,14.84v8.38h-1.04l-.16-1.42c-.47.97-1.63,1.63-2.94,1.63-1.97,0-3.05-1.35-3.05-3.39v-5.21h1.21v4.83c0,1.99.88,2.7,2.22,2.7,1.61,0,2.56-1.07,2.56-3.07v-4.45h1.2Z"/>
        <path class="cls-1" d="M159.75,19.05c0-2.53,1.44-4.43,3.93-4.43,1.39,0,2.49.61,3.08,1.82v-5.84h1.2v12.63h-1.04l-.12-1.71c-.59,1.3-1.77,1.92-3.17,1.92-2.44,0-3.88-1.87-3.88-4.38ZM166.75,19.01c0-1.92-1.07-3.33-2.91-3.33s-2.88,1.4-2.88,3.33,1.06,3.33,2.88,3.33,2.91-1.39,2.91-3.33Z"/>
        <path class="cls-1" d="M170.16,11.65c0-.48.4-.9.88-.9s.9.42.9.9-.42.88-.9.88-.88-.4-.88-.88ZM170.46,14.84h1.19v8.38h-1.19v-8.38Z"/>
        <path class="cls-1" d="M177.82,14.61c2.46,0,4.26,1.85,4.26,4.42s-1.8,4.4-4.26,4.4-4.26-1.85-4.26-4.4,1.8-4.42,4.26-4.42ZM177.82,22.35c1.78,0,3.05-1.37,3.05-3.34s-1.26-3.33-3.05-3.33-3.05,1.39-3.05,3.33,1.25,3.34,3.05,3.34Z"/>
      </g>
      <path class="cls-3" d="M36.56,18.39c-.85-.78-1.89-1.22-3.03-1.3-1.29-.09-2.56.3-3.56,1.13-.45.38-.84.82-1.13,1.31-.23.38-.51.73-.81,1.04,0,0-.01.01-.02.02-.68.67-1.58,1.07-2.52,1.15l-4.4-.02c-.31,0-.47-.37-.26-.6,1.02-1.14,2.03-2.28,3.05-3.42,1.6-1.79,3.13-4,5.86-3.33.51.12,1.04.16,1.58.1,1.05-.11,2.04-.61,2.77-1.38.8-.84,1.22-1.9,1.22-3.07s-.41-2.2-1.18-3.03c-.91-.98-2.22-1.51-3.55-1.44-1.02.05-1.95.44-2.72,1.12-.83.74-1.37,1.76-1.48,2.86-.1.96.31,1.83.23,2.79-.16,2.09-2,3.5-3.35,4.92-.99,1.04-1.97,2.08-2.96,3.13-.22.23-.62.08-.62-.24l-.05-4.7c-.01-1.3.48-2.54,1.39-3.46.36-.36.77-.68,1.21-.95.59-.36,1.12-.82,1.57-1.38.92-1.14,1.37-2.59,1.29-4.05s-.67-2.79-1.72-3.84S21.09.14,19.7.02c-.19-.02-.38-.02-.58-.02-1.79-.05-3.53.71-4.71,2.07-.8.93-1.28,2.05-1.39,3.27-.14,1.53.3,3.08,1.27,4.27.45.55.98,1.02,1.57,1.38.45.27.86.59,1.22.95.9.9,1.4,2.18,1.39,3.45l-.04,4.3c0,.31-.38.47-.61.26l-2.01-1.9c-.63-.62-1.01-1.45-1.02-2.33,0-.37.04-.74.13-1.1.11-.46.15-.95.09-1.44-.11-1.01-.6-1.94-1.35-2.61s-1.69-1.03-2.71-1.03-2,.37-2.77,1.08c-.89.83-1.38,2.03-1.32,3.24.05.93.4,1.78,1.02,2.48.67.75,1.61,1.25,2.61,1.35.49.05.98.02,1.44-.1.35-.09.71-.13,1.06-.13h.02c.89,0,1.73.38,2.35,1.02l2.43,2.57c.22.23.05.61-.27.61l-5.14-.05c-.81,0-1.59-.33-2.17-.9h-.01c-.32-.33-.61-.69-.85-1.09-.34-.56-.79-1.06-1.33-1.46-.92-.69-2.04-1.02-3.18-.98-1.3.04-2.46.55-3.39,1.48C.54,19.61.03,20.8,0,22.12c-.03,1.45.58,2.86,1.65,3.84.85.78,1.89,1.22,3.03,1.3,1.29.09,2.56-.3,3.56-1.13.45-.38.84-.82,1.13-1.31.23-.38.51-.73.81-1.04,0,0,.01-.01.02-.02.57-.56,1.28-.93,2.05-1.08.26-.05,5.79-.03,5.79-.03.2,0,.36.16.36.36l-.1,10.22c0,.42.33.76.75.76s.75-.34.75-.76l-.1-10.2c0-.2.16-.37.36-.36l1.35.02c.85,0,2.37,2.08,2.46,2.5.04.21.05.42.03.63-.03.22-.08.44-.17.65-.14.35-.2.75-.17,1.14s.17.78.39,1.11c.41.62,1.01,1,1.74,1.1.66.09,1.3-.08,1.83-.48s.88-1.03.96-1.7-.13-1.34-.59-1.88c-.26-.31-.6-.55-.98-.69s-.77-.19-1.15-.15c-.22.02-.65-.01-.65-.01-.96-.13-1.42-.93-1.93-1.65-.17-.24,0-.57.3-.57l2.33.02c.82,0,1.61.33,2.2.91.32.32.61.68.85,1.07.34.56.79,1.06,1.33,1.46.92.69,2.04,1.02,3.18.98,1.3-.04,2.46-.55,3.39-1.48.94-.94,1.45-2.13,1.48-3.46.03-1.45-.58-2.86-1.65-3.84Z"/>
    </g>
  </g>
</svg>